<?xml version="1.0" standalone="no"?>
<!DOCTYPE svg PUBLIC "-//W3C//DTD SVG 20010904//EN"
 "http://www.w3.org/TR/2001/REC-SVG-20010904/DTD/svg10.dtd">
<svg version="1.0" xmlns="http://www.w3.org/2000/svg"
 width="582.000000pt" height="582.000000pt" viewBox="0 0 582.000000 582.000000"
 preserveAspectRatio="xMidYMid meet">
<metadata>
Created by potrace 1.11, written by Peter Selinger 2001-2013
</metadata>
<g transform="translate(0.000000,582.000000) scale(0.100000,-0.100000)"
fill="#000000" stroke="none">
<path d="M2610 5811 c-94 -22 -178 -65 -245 -126 -202 -183 -266 -282 -266
-412 0 -83 24 -163 69 -231 77 -115 77 -119 -1 -177 -281 -212 -483 -451 -619
-735 -40 -83 -105 -260 -114 -310 -3 -14 -7 -33 -10 -42 -7 -24 -24 -107 -29
-148 -11 -82 -18 -197 -17 -280 0 -52 2 -169 3 -260 1 -91 -1 -212 -6 -270
-13 -170 -11 -257 9 -401 6 -38 53 -217 71 -268 18 -53 18 -51 1 -51 -45 0
-374 296 -391 352 -4 10 -10 18 -14 18 -10 0 -121 164 -121 179 0 5 -4 11 -9
13 -17 6 -109 203 -146 311 -64 192 -89 343 -89 552 0 236 24 382 98 595 38
108 122 277 181 363 22 32 45 66 50 75 51 81 220 253 336 342 18 14 37 30 43
35 6 6 28 19 49 30 20 11 37 23 37 27 0 3 9 10 21 13 11 4 18 9 15 12 -9 9
-179 -59 -282 -112 -197 -102 -353 -227 -520 -416 -22 -25 -131 -179 -151
-214 -113 -194 -201 -451 -230 -670 -9 -71 -9 -374 0 -495 14 -192 23 -245 52
-335 38 -116 45 -169 50 -360 3 -144 14 -346 20 -376 2 -10 6 -45 10 -78 3
-33 8 -70 11 -83 2 -13 7 -39 10 -58 3 -19 14 -73 25 -120 11 -47 23 -96 25
-110 3 -14 12 -47 21 -75 10 -27 18 -52 18 -55 4 -23 45 -128 77 -199 139
-300 350 -482 601 -517 151 -21 361 3 460 53 67 33 85 68 81 150 -2 57 -11 82
-65 192 l-63 126 -1 105 c-2 124 6 202 21 207 6 2 37 -57 69 -134 32 -76 66
-156 77 -177 10 -22 18 -46 18 -53 0 -7 5 -13 10 -13 6 0 10 -7 10 -16 0 -22
209 -444 230 -464 3 -3 11 -15 17 -27 7 -13 19 -33 25 -45 7 -13 15 -25 18
-28 3 -3 22 -31 43 -62 21 -31 43 -63 50 -70 6 -7 29 -34 50 -61 130 -160 326
-303 502 -366 226 -79 575 -72 737 16 88 48 121 106 112 199 -5 50 -17 77 -72
163 -20 31 -37 58 -38 61 0 3 -8 22 -18 42 -63 142 -95 475 -73 743 4 44 10
91 13 105 3 14 7 39 10 55 3 17 16 60 28 96 55 154 141 229 240 207 57 -13 95
-62 111 -143 5 -22 10 -47 11 -55 15 -68 18 -120 18 -290 -1 -107 -4 -215 -7
-240 -4 -25 -9 -67 -13 -94 -3 -27 -8 -58 -10 -70 -2 -12 -7 -55 -11 -96 -23
-259 24 -392 157 -447 51 -22 85 -26 188 -25 140 1 286 47 411 129 81 52 237
214 302 313 71 108 139 227 139 244 0 5 6 17 13 25 20 23 109 257 152 396 35
114 40 132 49 172 2 10 12 47 21 83 19 72 21 81 29 135 4 20 8 40 11 44 2 4
13 61 24 127 12 65 23 128 25 139 2 11 7 43 11 70 4 28 9 64 11 80 3 17 6 51
9 77 2 26 6 51 8 55 3 4 8 48 12 97 4 50 9 99 11 110 2 12 6 53 9 91 3 39 8
97 11 130 15 150 9 448 -11 585 -21 140 -88 416 -95 390 -1 -3 -3 -54 -5 -115
-7 -253 -54 -459 -149 -655 -17 -36 -34 -67 -38 -68 -5 -2 -8 -8 -8 -14 0 -25
-183 -248 -205 -248 -3 0 -22 -16 -42 -35 -20 -19 -40 -35 -44 -35 -4 0 -14
-6 -21 -13 -13 -12 -92 -69 -133 -95 -11 -7 -65 -35 -120 -62 -125 -63 -223
-87 -335 -85 -97 2 -190 -14 -246 -43 -43 -22 -53 -33 -104 -107 -56 -82 -77
-95 -143 -88 -47 5 -165 42 -232 74 -43 21 -63 23 -145 21 -310 -9 -294 -10
-336 24 -21 17 -45 44 -54 60 -78 139 -74 134 -116 177 -44 46 -107 82 -160
91 -62 12 -214 79 -222 99 -2 4 -8 7 -14 7 -5 0 -37 21 -71 47 -221 170 -366
407 -422 688 -17 90 -20 126 -19 300 1 221 5 261 45 440 23 100 24 104 32 125
3 8 15 40 26 72 37 105 129 278 152 286 5 2 9 8 9 13 0 17 96 111 133 131 36
18 42 18 81 5 51 -18 108 -14 161 10 44 20 62 34 139 106 73 68 180 138 261
171 168 66 197 94 197 184 -2 132 -102 369 -200 470 -43 44 -70 62 -112 76
-61 20 -215 30 -270 17z m675 -3735 c60 -20 86 -23 204 -21 75 1 144 0 153 -3
52 -13 12 -89 -67 -127 -77 -38 -210 -45 -280 -15 -27 12 -52 24 -55 28 -3 4
-18 15 -33 25 -32 20 -67 73 -67 100 0 27 22 45 50 41 14 -3 56 -15 95 -28z"/>
<path d="M4790 5521 c-138 -30 -283 -202 -359 -427 -49 -146 -30 -195 97 -261
145 -75 177 -101 336 -272 75 -81 119 -105 192 -106 58 0 66 3 135 50 100 67
105 72 169 137 122 123 164 270 120 420 -20 67 -130 218 -236 322 -61 60 -105
87 -191 117 -63 22 -206 33 -263 20z"/>
<path d="M2822 3909 c-51 -20 -141 -98 -187 -163 -11 -16 -29 -40 -41 -55 -51
-65 -118 -194 -129 -251 -16 -79 -17 -97 -13 -190 1 -36 63 -145 104 -185 127
-123 254 -105 418 59 99 100 241 275 262 324 26 60 33 91 23 98 -5 3 -7 10 -4
15 8 13 -31 163 -54 208 -67 128 -240 192 -379 140z"/>
<path d="M4209 3739 c-49 -11 -106 -45 -150 -90 -52 -54 -120 -172 -126 -219
-6 -41 18 -151 43 -200 7 -14 29 -65 49 -115 129 -314 262 -412 437 -324 138
69 209 186 210 344 0 185 -93 449 -190 535 -69 62 -179 89 -273 69z"/>
<path d="M3256 2662 c-2 -1 -19 -4 -37 -6 -114 -12 -149 -47 -115 -115 11 -21
29 -32 73 -46 85 -26 149 -63 189 -109 72 -86 61 -81 91 -45 52 61 127 95 235
105 60 6 93 26 106 62 12 36 7 47 -31 71 -60 37 -152 60 -302 76 -65 7 -205
12 -209 7z"/>
</g>
</svg>
